<?xml version="1.0" encoding="UTF-8" standalone="no"?>
<svg xmlns="http://www.w3.org/2000/svg" width="218" height="60" version="1.0">

<path d="M0,0h218v60H0z" fill="#f00" stroke="#000" stroke-width="2" stroke-opacity=".2"/>
<path d="M109,0v60" fill="none" stroke="#000" stroke-width="217" stroke-opacity=".25" stroke-dasharray="2.07"/>

<g stroke="#000" stroke-width="1">
<path d="M50.5,14.75h58.5v30.5h-58.5z" fill="#ff0"/>
<path d="M109,14.75h58.5v30.5h-58.5z" fill="#fff"/>
</g>

<g fill="none" stroke="#000" stroke-width="2">
<path d="M50.5,20h117"/>
<path d="M50.5,26.5h117"/>
<path d="M50.5,33h117"/>
<path d="M50.5,39.5h117"/>
</g>

<circle cx="109" cy="30" r="26.2" fill="#f00"/>
<circle cx="109" cy="30" r="21.3" fill="none" stroke="#000" stroke-width="2"/>

<g fill="none" stroke="#f00" stroke-width="2">
<path transform="rotate(10 109,30)" d="M82.8,30h52.4"/>
<path transform="rotate(35 109,30)" d="M82.8,30h52.4"/>
<path transform="rotate(55 109,30)" d="M82.8,30h52.4"/>
<path transform="rotate(80 109,30)" d="M82.8,30h52.4"/>
<path transform="rotate(100 109,30)" d="M82.8,30h52.4"/>
<path transform="rotate(125 109,30)" d="M82.8,30h52.4"/>
<path transform="rotate(145 109,30)" d="M82.8,30h52.4"/>
<path transform="rotate(170 109,30)" d="M82.8,30h52.4"/>
</g>

<g fill="none" stroke="#000" stroke-width="2" stroke-opacity=".4">
<path transform="rotate(10 109,30)" d="M82.8,30h52.4"/>
<path transform="rotate(35 109,30)" d="M82.8,30h52.4"/>
<path transform="rotate(55 109,30)" d="M82.8,30h52.4"/>
<path transform="rotate(80 109,30)" d="M82.8,30h52.4"/>
<path transform="rotate(100 109,30)" d="M82.8,30h52.4"/>
<path transform="rotate(125 109,30)" d="M82.8,30h52.4"/>
<path transform="rotate(145 109,30)" d="M82.8,30h52.4"/>
<path transform="rotate(170 109,30)" d="M82.8,30h52.4"/>
</g>

<g fill="none" stroke="#000" stroke-width="2" stroke-opacity=".4">
<path transform="rotate(10 109,30)" d="M98,30h22"/>
<path transform="rotate(35 109,30)" d="M98,30h22"/>
<path transform="rotate(55 109,30)" d="M98,30h22"/>
<path transform="rotate(80 109,30)" d="M98,30h22"/>
<path transform="rotate(100 109,30)" d="M98,30h22"/>
<path transform="rotate(125 109,30)" d="M98,30h22"/>
<path transform="rotate(145 109,30)" d="M98,30h22"/>
<path transform="rotate(170 109,30)" d="M98,30h22"/>
</g>

<circle cx="109" cy="30" r="26.2" fill="none" stroke="#000" stroke-width="2"/>

</svg>